<svg viewBox="0 0 128 128" xmlns="http://www.w3.org/2000/svg">
<path d="m81.067 45.112c-0.09946-8.89e-4 -0.19843-4.58e-4 -0.29674 0.0011-1.5153 0.02396-4.7619 0.01795-7.6695 1.334-2.9076 1.316-5.4641 4.0435-5.4641 9.2476 0 2.1998 0.73464 4.101 1.8867 5.7299h-23.211v-10.511h15.238v-5.3507h-21.365v5.3507h0.0016v10.511h-0.0016v5.351h0.0016v12.456l-3.5798-0.02143-4.9539 0.02278-7.755-12.048c1.8177-0.74956 3.5966-1.8279 4.9658-3.3387 1.4892-1.6432 2.4864-3.7902 2.4864-6.4468v-0.76408c0-3.8875-1.4825-6.6762-3.9001-8.4542-2.4176-1.778-5.7247-2.5638-9.4006-2.6476h-11.8v5.4112h0.030159v12.708h-0.030108v5.0513h0.030108v15.854h6.1256v-15.87l6.1604-0.01736 8.4575 13.759 0.01193 0.016c0.71617 0.94845 2.2048 3.0543 4.6105 4.5709l0.2037 0.12857 4.8617-2.564 3.8936-0.02333h20.944v-5.5609h-15.237v-12.222h30.129c0.01106 0.0052 0.01931 0.0092 0.03119 0.01465 1.8665 0.85339 4.132 1.6256 5.8956 2.7382 1.7636 1.1125 2.9969 2.4888 2.9969 4.6753 0 2.3534-1.0619 3.5857-2.5589 4.3336s-3.4534 0.93306-5.064 0.93306h-0.0028c-3.087 0.01916-6.7181-1.2924-9.8188-2.3278l-0.54844-0.18309v5.8834l0.24384 0.11121c3.0434 1.3874 7.5514 1.9289 10.135 1.8306 1.8531-9.72e-4 5.2375-0.36382 8.225-1.8591 2.9915-1.4972 5.5845-4.2095 5.5845-8.7219 0-3.492-1.3144-5.9958-3.1534-7.7878-1.839-1.7919-4.1825-2.8912-6.2751-3.7065l-8.19e-4 -2.78e-4 -5.42e-4 -2.78e-4c-0.7937-0.30608-2.299-0.9071-3.7957-1.7218-1.4944-0.81348-2.9719-1.8536-3.7103-2.944-0.4595-0.74598-0.74286-1.5768-0.79256-2.3617 0.0044-2.3794 1.1134-3.6626 2.5496-4.4196 1.4391-0.75844 3.2316-0.91934 4.4019-0.83487 2.3554 0.17001 6.4131 1.4988 7.711 2.053l0.4131 0.1763 0.60079-1.7649h16.244v33.667h6.1256v-33.667h11.011v-5.3038h-11.011v-0.0236h-6.1256v0.0236h-21.167c-1.1756-0.28384-2.3573-0.46504-3.5188-0.47548zm-0.0076 0.83324c1.0998 0.0099 2.2408 0.18255 3.3897 0.46355l0.04882 0.01194h22.089v-0.0236h4.4592v0.0236h11.011v3.6373h-11.011v33.667h-4.4592v-33.667h-17.674l-0.50938 1.497c-1.6373-0.6495-5.1548-1.7857-7.5586-1.9592-1.3007-0.09389-3.2078 0.06293-4.8506 0.92872-1.6427 0.86579-2.9953 2.5105-2.9953 5.1701v0.01248l8.19e-4 0.01275c0.05757 0.9537 0.39266 1.914 0.92221 2.7704l0.0043 0.0071 0.0046 0.0068c0.88251 1.3074 2.4554 2.3702 4.0067 3.2147 1.5514 0.84447 3.0889 1.4569 3.8939 1.7674 2.0511 0.79916 4.2887 1.8638 5.9949 3.5264 1.7066 1.6629 2.9017 3.9047 2.9017 7.1911 0 4.1997-2.3126 6.5696-5.1242 7.9768-2.8117 1.4072-6.1217 1.7715-7.8608 1.7715h-0.0081l-0.0079 2.78e-4c-2.3569 0.09074-6.6803-0.44192-9.5207-1.6597v-4.1757c2.9689 1.0013 6.4059 2.2062 9.5395 2.1867 1.6703-1.38e-4 3.7322-0.17082 5.4337-1.0209 1.7024-0.85056 3.0197-2.4597 3.0197-5.0789 0-2.5097-1.4992-4.1903-3.3856-5.3803-1.8864-1.19-4.1886-1.9658-5.9936-2.791-0.0316-0.01445-0.06825-0.03215-0.11012-0.05153l-0.08327-0.03852h-31.147v13.888h15.237v3.8944h-20.114l-4.0998 0.02441-4.6062 2.4292c-2.1169-1.3966-3.4676-3.2698-4.1844-4.2199l-8.681-14.122-7.4585 0.02061v15.868h-4.4592v-15.854h-0.030108v-3.3848h0.030108v-14.375h-0.030108v-3.7447h10.948c3.5677 0.08126 6.7076 0.85422 8.9259 2.4856 2.2183 1.6314 3.5605 4.1028 3.5605 7.7829v0.76408c0 2.4505-0.89759 4.3723-2.2705 5.8872-1.3729 1.5149-3.2316 2.6104-5.1196 3.3248l-0.4798 0.18161c2.8628 4.4171 5.7035 8.8487 8.5524 13.275l5.4069-0.02495 4.4136 0.02631v-14.127h-0.0016v-3.6845h0.0016v-12.178h-0.0016v-3.6842h19.699v3.6842h-15.238v12.178h25.726l-0.55902-0.68108c-1.3488-1.6431-2.1767-3.5777-2.1767-5.8821 0-4.9391 2.2818-7.2701 4.9742-8.4887 2.6924-1.2186 5.8075-1.2354 7.3392-1.2596 0.09212-0.0015 0.18424-0.0019 0.27612-0.0011zm-69.487 4.1665v14.375h5.0564c2.1262 0 4.3615-0.31202 6.1129-1.3668 1.7514-1.0547 2.9736-2.9004 2.9736-5.7199v-0.76408c0-2.8548-1.6037-4.5536-3.3362-5.4513-1.7325-0.89779-3.5777-1.0725-4.3387-1.0725zm0.83324 0.83324h5.6347c0.62035 0 2.4042 0.17503 3.9555 0.9789 1.5513 0.80387 2.8862 2.1587 2.8862 4.7117v0.76408c0 2.5883-1.0288 4.0777-2.5703 5.006s-3.6409 1.2474-5.683 1.2474h-4.2232z" fill="#FFFFFF"/>
</svg>
